<svg width="70" height="73" viewBox="0 0 70 73" fill="none" xmlns="http://www.w3.org/2000/svg">
<path d="M35 18.3334C39.2342 18.3334 42.6667 14.2666 42.6667 9.25002C42.6667 4.23343 39.2342 0.166687 35 0.166687C30.7659 0.166687 27.3334 4.23343 27.3334 9.25002C27.3334 14.2666 30.7659 18.3334 35 18.3334Z" fill="#3676FF"/>
<path d="M69.5 54.6667V45.5833C60.9133 45.5833 53.5533 41.2233 48.0333 33.4117L42.8967 26.145C41.44 24.0558 39.2933 22.875 37.0317 22.875H33.0067C30.745 22.875 28.5983 24.0558 27.1417 26.145L22.005 33.4117C16.4467 41.2233 9.08667 45.5833 0.5 45.5833V54.6667C11.1183 54.6667 20.395 49.3529 27.3333 39.9062V50.125L12.46 57.1646C9.89167 58.3908 8.16667 61.3883 8.16667 64.7037C8.16667 69.2 11.2333 72.8333 15.0283 72.8333H23.5V70.5625C23.5 64.295 27.7933 59.2083 33.0833 59.2083H44.5833C45.6567 59.2083 46.5 60.2075 46.5 61.4792C46.5 62.7508 45.6567 63.75 44.5833 63.75H33.0833C29.9017 63.75 27.3333 66.7929 27.3333 70.5625V72.8333H54.9717C58.7667 72.8333 61.8333 69.2 61.8333 64.7037C61.8333 61.3883 60.1083 58.3908 57.54 57.1646L42.6667 50.125V39.9062C49.605 49.3529 58.8817 54.6667 69.5 54.6667Z" fill="#3676FF"/>
</svg>
